<svg width="32" height="32" viewBox="0 0 32 32" fill="none" xmlns="http://www.w3.org/2000/svg">
  <!-- Background circle -->
  <circle cx="16" cy="16" r="16" fill="#4F46E5"/>
  
  <!-- Briefcase icon -->
  <path d="M8 12C8 10.8954 8.89543 10 10 10H22C23.1046 10 24 10.8954 24 12V22C24 23.1046 23.1046 24 22 24H10C8.89543 24 8 23.1046 8 22V12Z" fill="white"/>
  
  <!-- Briefcase handle -->
  <path d="M12 10V8C12 6.89543 12.8954 6 14 6H18C19.1046 6 20 6.89543 20 8V10" stroke="white" stroke-width="2" stroke-linecap="round" stroke-linejoin="round"/>
  
  <!-- Briefcase details -->
  <rect x="10" y="14" width="12" height="2" rx="1" fill="#4F46E5"/>
  <rect x="10" y="17" width="12" height="2" rx="1" fill="#4F46E5"/>
</svg>

